<svg width="48" height="49" viewBox="0 0 48 49" fill="none" xmlns="http://www.w3.org/2000/svg">
<g id="flow-chart 1">
<g id="Group">
<path id="Vector" d="M32.25 40.2614H27.75V36.1769L34.4153 32.0114L27.75 27.8459V23.0114H32.25V17.0114H27.75V11.7614H33.75V1.26135H20.25V11.7614H26.25V17.0114H21.75V19.2614H15V20.7614H21.75V23.0114H26.25V27.8459L19.5848 32.0114L26.25 36.1769V40.2614H21.75C20.5095 40.2614 19.5 41.2709 19.5 42.5114V45.5114C19.5 46.7519 20.5095 47.7614 21.75 47.7614H32.25C33.4905 47.7614 34.5 46.7519 34.5 45.5114V42.5114C34.5 41.2709 33.4905 40.2614 32.25 40.2614ZM21.75 2.76135H32.25V10.2614H21.75V2.76135ZM23.25 18.5114H30.75V21.5114H23.25V18.5114ZM27 29.1456L31.5847 32.0114L27 34.8771L22.4152 32.0114L27 29.1456ZM33 45.5114C33 45.9246 32.6632 46.2614 32.25 46.2614H21.75C21.3368 46.2614 21 45.9246 21 45.5114V42.5114C21 42.0981 21.3368 41.7614 21.75 41.7614H32.25C32.6632 41.7614 33 42.0981 33 42.5114V45.5114Z" fill="#1C1C1C"/>
<path id="Vector_2" d="M13.7197 41.5416L15.4395 43.2614H8.862C8.6355 42.6261 8.13525 42.1259 7.5 41.8994V26.0114H6V41.8994C5.12925 42.2099 4.5 43.0349 4.5 44.0114C4.5 45.2519 5.5095 46.2614 6.75 46.2614C7.7265 46.2614 8.5515 45.6321 8.862 44.7614H15.4395L13.7197 46.4811L14.7803 47.5416L18.3105 44.0114L14.7803 40.4811L13.7197 41.5416ZM6.75 44.7614C6.33675 44.7614 6 44.4246 6 44.0114C6 43.5981 6.33675 43.2614 6.75 43.2614C7.16325 43.2614 7.5 43.5981 7.5 44.0114C7.5 44.4246 7.16325 44.7614 6.75 44.7614Z" fill="#1C1C1C"/>
<path id="Vector_3" d="M45.75 29.8994V8.62335C46.6207 8.31285 47.25 7.48785 47.25 6.51135C47.25 5.27085 46.2405 4.26135 45 4.26135C44.0235 4.26135 43.1985 4.8906 42.888 5.76135H35.25V7.26135H42.888C43.1145 7.8966 43.6147 8.39685 44.25 8.62335V29.9001C43.6147 30.1266 43.1145 30.6269 42.888 31.2621H37.8105L39.5302 29.5424L38.4697 28.4819L34.9395 32.0114L38.4697 35.5416L39.5302 34.4811L37.8105 32.7614H42.888C43.1985 33.6321 44.0235 34.2614 45 34.2614C46.2405 34.2614 47.25 33.2519 47.25 32.0114C47.25 31.0349 46.6207 30.2099 45.75 29.8994ZM45 5.76135C45.4132 5.76135 45.75 6.0981 45.75 6.51135C45.75 6.9246 45.4132 7.26135 45 7.26135C44.5867 7.26135 44.25 6.9246 44.25 6.51135C44.25 6.0981 44.5867 5.76135 45 5.76135ZM45 32.7614C44.5867 32.7614 44.25 32.4246 44.25 32.0114C44.25 31.5981 44.5867 31.2614 45 31.2614C45.4132 31.2614 45.75 31.5981 45.75 32.0114C45.75 32.4246 45.4132 32.7614 45 32.7614Z" fill="#1C1C1C"/>
<path id="Vector_4" d="M13.2907 20.0113L6.74998 15.3396L0.209229 20.0113L6.74998 24.6831L13.2907 20.0113ZM6.74998 17.1831L10.7092 20.0113L6.74998 22.8396L2.79073 20.0113L6.74998 17.1831Z" fill="#1C1C1C"/>
<path id="Vector_5" d="M23.25 4.26135H30.75V5.76135H23.25V4.26135Z" fill="#1C1C1C"/>
<path id="Vector_6" d="M23.25 7.26135H27.75V8.76135H23.25V7.26135Z" fill="#1C1C1C"/>
<path id="Vector_7" d="M29.25 7.26135H30.75V8.76135H29.25V7.26135Z" fill="#1C1C1C"/>
<path id="Vector_8" d="M42 43.2614H43.5V44.7614H42V43.2614Z" fill="#1C1C1C"/>
<path id="Vector_9" d="M39 43.2614H40.5V44.7614H39V43.2614Z" fill="#1C1C1C"/>
<path id="Vector_10" d="M36 43.2614H37.5V44.7614H36V43.2614Z" fill="#1C1C1C"/>
<path id="Vector_11" d="M14.25 7.26135H15.75V8.76135H14.25V7.26135Z" fill="#1C1C1C"/>
<path id="Vector_12" d="M17.25 7.26135H18.75V8.76135H17.25V7.26135Z" fill="#1C1C1C"/>
<path id="Vector_13" d="M11.25 7.26135H12.75V8.76135H11.25V7.26135Z" fill="#1C1C1C"/>
</g>
</g>
</svg>
